<svg width="160" height="160" viewBox="0 0 160 160" fill="none"
     xmlns="http://www.w3.org/2000/svg">
    <path d="M55.1724 0H60.6897V5.51724H55.1724V0Z" fill="white"/>
    <path d="M82.7586 0H88.2759V5.51724H82.7586V0Z" fill="white"/>
    <path d="M88.2759 0H93.7931V5.51724H88.2759V0Z" fill="white"/>
    <path d="M99.3103 0H104.828V5.51724H99.3103V0Z" fill="white"/>
    <path d="M44.1379 5.51724H49.6552V11.0345H44.1379V5.51724Z" fill="white"/>
    <path d="M49.6552 5.51724H55.1724L55.1724 11.0345H49.6552V5.51724Z"
          fill="white"/>
    <path d="M60.6897 5.51724H66.2069V11.0345H60.6897V5.51724Z" fill="white"/>
    <path d="M66.2069 5.51724H71.7241V11.0345H66.2069V5.51724Z" fill="white"/>
    <path d="M71.7241 5.51724H77.2414V11.0345H71.7241V5.51724Z" fill="white"/>
    <path d="M77.2414 5.51724H82.7586V11.0345H77.2414V5.51724Z" fill="white"/>
    <path d="M88.2759 5.51724H93.7931V11.0345H88.2759V5.51724Z" fill="white"/>
    <path d="M93.7931 5.51724H99.3103V11.0345H93.7931V5.51724Z" fill="white"/>
    <path d="M110.345 5.51724H115.862V11.0345H110.345V5.51724Z" fill="white"/>
    <path d="M44.1379 11.0345H49.6552V16.5517H44.1379V11.0345Z" fill="white"/>
    <path d="M49.6552 11.0345H55.1724V16.5517H49.6552V11.0345Z" fill="white"/>
    <path d="M55.1724 11.0345H60.6897V16.5517H55.1724V11.0345Z" fill="white"/>
    <path d="M66.2069 11.0345H71.7241V16.5517H66.2069V11.0345Z" fill="white"/>
    <path d="M71.7241 11.0345H77.2414V16.5517H71.7241V11.0345Z" fill="white"/>
    <path d="M82.7586 11.0345H88.2759V16.5517H82.7586V11.0345Z" fill="white"/>
    <path d="M99.3103 11.0345H104.828V16.5517H99.3103V11.0345Z" fill="white"/>
    <path d="M110.345 11.0345H115.862V16.5517H110.345V11.0345Z" fill="white"/>
    <path d="M44.1379 16.5517H49.6552V22.069H44.1379V16.5517Z" fill="white"/>
    <path d="M49.6552 16.5517H55.1724V22.069H49.6552V16.5517Z" fill="white"/>
    <path d="M60.6897 16.5517H66.2069V22.069H60.6897V16.5517Z" fill="white"/>
    <path d="M88.2759 16.5517H93.7931V22.069H88.2759V16.5517Z" fill="white"/>
    <path d="M93.7931 16.5517H99.3103V22.069H93.7931V16.5517Z" fill="white"/>
    <path d="M110.345 16.5517H115.862V22.069H110.345V16.5517Z" fill="white"/>
    <path d="M49.6552 22.069H55.1724V27.5862H49.6552V22.069Z" fill="white"/>
    <path d="M82.7586 22.069H88.2759V27.5862H82.7586V22.069Z" fill="white"/>
    <path d="M88.2759 22.069H93.7931V27.5862H88.2759V22.069Z" fill="white"/>
    <path d="M104.828 22.069H110.345V27.5862H104.828V22.069Z" fill="white"/>
    <path d="M110.345 22.069H115.862V27.5862H110.345V22.069Z" fill="white"/>
    <path d="M49.6552 27.5862H55.1724V33.1034H49.6552V27.5862Z" fill="white"/>
    <path d="M66.2069 27.5862H71.7241V33.1034H66.2069V27.5862Z" fill="white"/>
    <path d="M82.7586 27.5862H88.2759V33.1034H82.7586V27.5862Z" fill="white"/>
    <path d="M110.345 27.5862H115.862V33.1034H110.345V27.5862Z" fill="white"/>
    <path d="M44.1379 33.1034H49.6552V38.6207H44.1379V33.1034Z" fill="white"/>
    <path d="M55.1724 33.1034H60.6897V38.6207H55.1724L55.1724 33.1034Z"
          fill="white"/>
    <path d="M66.2069 33.1034H71.7241V38.6207H66.2069V33.1034Z" fill="white"/>
    <path d="M77.2414 33.1034H82.7586V38.6207H77.2414V33.1034Z" fill="white"/>
    <path d="M88.2759 33.1034H93.7931V38.6207H88.2759V33.1034Z" fill="white"/>
    <path d="M99.3103 33.1034H104.828V38.6207H99.3103V33.1034Z" fill="white"/>
    <path d="M110.345 33.1034H115.862V38.6207H110.345V33.1034Z" fill="white"/>
    <path d="M44.1379 38.6207H49.6552V44.1379H44.1379V38.6207Z" fill="white"/>
    <path d="M60.6897 38.6207H66.2069V44.1379H60.6897V38.6207Z" fill="white"/>
    <path d="M77.2414 38.6207H82.7586V44.1379H77.2414V38.6207Z" fill="white"/>
    <path d="M82.7586 38.6207H88.2759V44.1379H82.7586V38.6207Z" fill="white"/>
    <path d="M88.2759 38.6207H93.7931V44.1379H88.2759V38.6207Z" fill="white"/>
    <path d="M99.3103 38.6207H104.828V44.1379H99.3103V38.6207Z" fill="white"/>
    <path d="M110.345 38.6207H115.862V44.1379H110.345V38.6207Z" fill="white"/>
    <path d="M0 44.1379H5.51724V49.6552H0V44.1379Z" fill="white"/>
    <path d="M33.1034 44.1379H38.6207V49.6552H33.1034V44.1379Z" fill="white"/>
    <path d="M44.1379 44.1379H49.6552V49.6552H44.1379V44.1379Z" fill="white"/>
    <path d="M55.1724 44.1379H60.6897V49.6552H55.1724V44.1379Z" fill="white"/>
    <path d="M88.2759 44.1379H93.7931V49.6552H88.2759V44.1379Z" fill="white"/>
    <path d="M93.7931 44.1379H99.3103V49.6552H93.7931V44.1379Z" fill="white"/>
    <path d="M104.828 44.1379H110.345V49.6552H104.828L104.828 44.1379Z"
          fill="white"/>
    <path d="M115.862 44.1379H121.379V49.6552H115.862V44.1379Z" fill="white"/>
    <path d="M121.379 44.1379H126.897V49.6552H121.379V44.1379Z" fill="white"/>
    <path d="M137.931 44.1379H143.448V49.6552H137.931V44.1379Z" fill="white"/>
    <path d="M143.448 44.1379H148.966V49.6552H143.448V44.1379Z" fill="white"/>
    <path d="M148.966 44.1379H154.483V49.6552H148.966V44.1379Z" fill="white"/>
    <path d="M0 49.6552H5.51724V55.1724H0V49.6552Z" fill="white"/>
    <path d="M11.0345 49.6552H16.5517V55.1724H11.0345V49.6552Z" fill="white"/>
    <path d="M27.5862 49.6552H33.1034V55.1724H27.5862V49.6552Z" fill="white"/>
    <path d="M71.7241 49.6552H77.2414V55.1724H71.7241V49.6552Z" fill="white"/>
    <path d="M88.2759 49.6552H93.7931V55.1724H88.2759V49.6552Z" fill="white"/>
    <path d="M93.7931 49.6552H99.3103V55.1724H93.7931V49.6552Z" fill="white"/>
    <path d="M99.3103 49.6552H104.828L104.828 55.1724H99.3103V49.6552Z"
          fill="white"/>
    <path d="M104.828 49.6552H110.345V55.1724H104.828L104.828 49.6552Z"
          fill="white"/>
    <path d="M126.897 49.6552H132.414V55.1724H126.897V49.6552Z" fill="white"/>
    <path d="M132.414 49.6552H137.931V55.1724H132.414V49.6552Z" fill="white"/>
    <path d="M143.448 49.6552H148.966V55.1724H143.448V49.6552Z" fill="white"/>
    <path d="M148.966 49.6552H154.483V55.1724H148.966V49.6552Z" fill="white"/>
    <path d="M5.51724 55.1724H11.0345V60.6897H5.51724V55.1724Z" fill="white"/>
    <path d="M11.0345 55.1724H16.5517V60.6897H11.0345V55.1724Z" fill="white"/>
    <path d="M16.5517 55.1724L22.069 55.1724V60.6897H16.5517V55.1724Z"
          fill="white"/>
    <path d="M22.069 55.1724L27.5862 55.1724L27.5862 60.6897H22.069V55.1724Z"
          fill="white"/>
    <path d="M33.1034 55.1724L38.6207 55.1724V60.6897H33.1034V55.1724Z"
          fill="white"/>
    <path d="M38.6207 55.1724H44.1379V60.6897H38.6207V55.1724Z" fill="white"/>
    <path d="M44.1379 55.1724H49.6552V60.6897H44.1379V55.1724Z" fill="white"/>
    <path d="M49.6552 55.1724H55.1724V60.6897H49.6552V55.1724Z" fill="white"/>
    <path d="M66.2069 55.1724L71.7241 55.1724V60.6897H66.2069V55.1724Z"
          fill="white"/>
    <path d="M71.7241 55.1724H77.2414V60.6897H71.7241V55.1724Z" fill="white"/>
    <path d="M77.2414 55.1724L82.7586 55.1724V60.6897H77.2414V55.1724Z"
          fill="white"/>
    <path d="M82.7586 55.1724L88.2759 55.1724V60.6897H82.7586V55.1724Z"
          fill="white"/>
    <path d="M88.2759 55.1724H93.7931V60.6897H88.2759V55.1724Z" fill="white"/>
    <path d="M93.7931 55.1724H99.3103V60.6897H93.7931V55.1724Z" fill="white"/>
    <path d="M0 60.6897H5.51724V66.2069H0V60.6897Z" fill="white"/>
    <path d="M11.0345 60.6897H16.5517V66.2069H11.0345V60.6897Z" fill="white"/>
    <path d="M27.5862 60.6897H33.1034V66.2069H27.5862L27.5862 60.6897Z"
          fill="white"/>
    <path d="M38.6207 60.6897H44.1379V66.2069H38.6207V60.6897Z" fill="white"/>
    <path d="M44.1379 60.6897H49.6552V66.2069H44.1379V60.6897Z" fill="white"/>
    <path d="M49.6552 60.6897H55.1724V66.2069H49.6552V60.6897Z" fill="white"/>
    <path d="M55.1724 60.6897H60.6897V66.2069H55.1724V60.6897Z" fill="white"/>
    <path d="M66.2069 60.6897H71.7241V66.2069H66.2069V60.6897Z" fill="white"/>
    <path d="M71.7241 60.6897H77.2414V66.2069H71.7241V60.6897Z" fill="white"/>
    <path d="M110.345 60.6897H115.862V66.2069H110.345V60.6897Z" fill="white"/>
    <path d="M121.379 60.6897H126.897V66.2069H121.379V60.6897Z" fill="white"/>
    <path d="M126.897 60.6897H132.414V66.2069H126.897V60.6897Z" fill="white"/>
    <path d="M137.931 60.6897H143.448V66.2069H137.931V60.6897Z" fill="white"/>
    <path d="M5.51724 66.2069H11.0345V71.7241H5.51724V66.2069Z" fill="white"/>
    <path d="M27.5862 66.2069H33.1034V71.7241H27.5862V66.2069Z" fill="white"/>
    <path d="M33.1034 66.2069H38.6207V71.7241H33.1034V66.2069Z" fill="white"/>
    <path d="M44.1379 66.2069H49.6552V71.7241H44.1379V66.2069Z" fill="white"/>
    <path d="M55.1724 66.2069H60.6897V71.7241H55.1724L55.1724 66.2069Z"
          fill="white"/>
    <path d="M71.7241 66.2069H77.2414V71.7241H71.7241V66.2069Z" fill="white"/>
    <path d="M82.7586 66.2069H88.2759V71.7241H82.7586V66.2069Z" fill="white"/>
    <path d="M88.2759 66.2069H93.7931V71.7241H88.2759V66.2069Z" fill="white"/>
    <path d="M104.828 66.2069H110.345V71.7241H104.828V66.2069Z" fill="white"/>
    <path d="M110.345 66.2069H115.862V71.7241H110.345V66.2069Z" fill="white"/>
    <path d="M121.379 66.2069H126.897V71.7241H121.379V66.2069Z" fill="white"/>
    <path d="M126.897 66.2069H132.414V71.7241H126.897V66.2069Z" fill="white"/>
    <path d="M154.483 66.2069H160V71.7241H154.483V66.2069Z" fill="white"/>
    <path d="M11.0345 71.7241H16.5517V77.2414H11.0345V71.7241Z" fill="white"/>
    <path d="M22.069 71.7241H27.5862L27.5862 77.2414H22.069V71.7241Z"
          fill="white"/>
    <path d="M38.6207 71.7241H44.1379V77.2414H38.6207V71.7241Z" fill="white"/>
    <path d="M49.6552 71.7241H55.1724L55.1724 77.2414H49.6552V71.7241Z"
          fill="white"/>
    <path d="M55.1724 71.7241H60.6897V77.2414H55.1724L55.1724 71.7241Z"
          fill="white"/>
    <path d="M88.2759 71.7241H93.7931V77.2414H88.2759V71.7241Z" fill="white"/>
    <path d="M104.828 71.7241H110.345V77.2414H104.828V71.7241Z" fill="white"/>
    <path d="M110.345 71.7241H115.862V77.2414H110.345V71.7241Z" fill="white"/>
    <path d="M115.862 71.7241H121.379V77.2414H115.862V71.7241Z" fill="white"/>
    <path d="M121.379 71.7241H126.897V77.2414H121.379V71.7241Z" fill="white"/>
    <path d="M132.414 71.7241H137.931V77.2414H132.414V71.7241Z" fill="white"/>
    <path d="M148.966 71.7241H154.483V77.2414H148.966V71.7241Z" fill="white"/>
    <path d="M154.483 71.7241H160V77.2414H154.483V71.7241Z" fill="white"/>
    <path d="M0 77.2414H5.51724V82.7586H0V77.2414Z" fill="white"/>
    <path d="M5.51724 77.2414H11.0345V82.7586H5.51724V77.2414Z" fill="white"/>
    <path d="M22.069 77.2414H27.5862V82.7586H22.069V77.2414Z" fill="white"/>
    <path d="M33.1034 77.2414H38.6207V82.7586H33.1034V77.2414Z" fill="white"/>
    <path d="M44.1379 77.2414H49.6552V82.7586H44.1379V77.2414Z" fill="white"/>
    <path d="M49.6552 77.2414H55.1724V82.7586H49.6552V77.2414Z" fill="white"/>
    <path d="M93.7931 77.2414H99.3103V82.7586H93.7931V77.2414Z" fill="white"/>
    <path d="M99.3103 77.2414H104.828L104.828 82.7586H99.3103V77.2414Z"
          fill="white"/>
    <path d="M115.862 77.2414H121.379V82.7586H115.862V77.2414Z" fill="white"/>
    <path d="M126.897 77.2414H132.414V82.7586H126.897V77.2414Z" fill="white"/>
    <path d="M137.931 77.2414H143.448V82.7586H137.931V77.2414Z" fill="white"/>
    <path d="M143.448 77.2414H148.966V82.7586H143.448V77.2414Z" fill="white"/>
    <path d="M44.1379 82.7586H49.6552V88.2759H44.1379V82.7586Z" fill="white"/>
    <path d="M49.6552 82.7586H55.1724V88.2759H49.6552V82.7586Z" fill="white"/>
    <path d="M55.1724 82.7586H60.6897V88.2759H55.1724V82.7586Z" fill="white"/>
    <path d="M82.7586 82.7586H88.2759V88.2759H82.7586V82.7586Z" fill="white"/>
    <path d="M99.3103 82.7586H104.828V88.2759H99.3103V82.7586Z" fill="white"/>
    <path d="M104.828 82.7586H110.345V88.2759H104.828V82.7586Z" fill="white"/>
    <path d="M126.897 82.7586H132.414V88.2759H126.897V82.7586Z" fill="white"/>
    <path d="M132.414 82.7586H137.931V88.2759H132.414V82.7586Z" fill="white"/>
    <path d="M143.448 82.7586H148.966V88.2759H143.448V82.7586Z" fill="white"/>
    <path d="M154.483 82.7586H160V88.2759H154.483V82.7586Z" fill="white"/>
    <path d="M0 88.2759H5.51724V93.7931H0V88.2759Z" fill="white"/>
    <path d="M22.069 88.2759H27.5862V93.7931H22.069V88.2759Z" fill="white"/>
    <path d="M27.5862 88.2759H33.1034V93.7931H27.5862V88.2759Z" fill="white"/>
    <path d="M33.1034 88.2759H38.6207V93.7931H33.1034V88.2759Z" fill="white"/>
    <path d="M60.6897 88.2759H66.2069V93.7931H60.6897V88.2759Z" fill="white"/>
    <path d="M88.2759 88.2759H93.7931V93.7931H88.2759V88.2759Z" fill="white"/>
    <path d="M93.7931 88.2759H99.3103V93.7931H93.7931V88.2759Z" fill="white"/>
    <path d="M99.3103 88.2759H104.828V93.7931H99.3103V88.2759Z" fill="white"/>
    <path d="M104.828 88.2759H110.345V93.7931H104.828V88.2759Z" fill="white"/>
    <path d="M126.897 88.2759H132.414V93.7931H126.897V88.2759Z" fill="white"/>
    <path d="M137.931 88.2759H143.448V93.7931H137.931V88.2759Z" fill="white"/>
    <path d="M143.448 88.2759H148.966V93.7931H143.448V88.2759Z" fill="white"/>
    <path d="M0 93.7931H5.51724V99.3103H0V93.7931Z" fill="white"/>
    <path d="M38.6207 93.7931H44.1379V99.3103H38.6207V93.7931Z" fill="white"/>
    <path d="M44.1379 93.7931H49.6552V99.3103H44.1379V93.7931Z" fill="white"/>
    <path d="M49.6552 93.7931H55.1724V99.3103H49.6552V93.7931Z" fill="white"/>
    <path d="M60.6897 93.7931H66.2069V99.3103H60.6897V93.7931Z" fill="white"/>
    <path d="M71.7241 93.7931H77.2414V99.3103H71.7241V93.7931Z" fill="white"/>
    <path d="M77.2414 93.7931H82.7586V99.3103H77.2414V93.7931Z" fill="white"/>
    <path d="M93.7931 93.7931H99.3103V99.3103H93.7931V93.7931Z" fill="white"/>
    <path d="M99.3103 93.7931H104.828V99.3103H99.3103V93.7931Z" fill="white"/>
    <path d="M104.828 93.7931H110.345V99.3103H104.828V93.7931Z" fill="white"/>
    <path d="M110.345 93.7931H115.862V99.3103H110.345V93.7931Z" fill="white"/>
    <path d="M121.379 93.7931H126.897V99.3103H121.379V93.7931Z" fill="white"/>
    <path d="M126.897 93.7931H132.414V99.3103H126.897V93.7931Z" fill="white"/>
    <path d="M132.414 93.7931H137.931V99.3103H132.414V93.7931Z" fill="white"/>
    <path d="M143.448 93.7931H148.966V99.3103H143.448V93.7931Z" fill="white"/>
    <path d="M148.966 93.7931H154.483V99.3103H148.966V93.7931Z" fill="white"/>
    <path d="M154.483 93.7931H160V99.3103H154.483V93.7931Z" fill="white"/>
    <path d="M0 99.3103H5.51724V104.828H0V99.3103Z" fill="white"/>
    <path d="M5.51724 99.3103H11.0345V104.828H5.51724V99.3103Z" fill="white"/>
    <path d="M16.5517 99.3103H22.069V104.828H16.5517V99.3103Z" fill="white"/>
    <path d="M22.069 99.3103H27.5862V104.828H22.069V99.3103Z" fill="white"/>
    <path d="M27.5862 99.3103H33.1034V104.828H27.5862V99.3103Z" fill="white"/>
    <path d="M33.1034 99.3103H38.6207V104.828H33.1034V99.3103Z" fill="white"/>
    <path d="M44.1379 99.3103H49.6552V104.828H44.1379V99.3103Z" fill="white"/>
    <path d="M49.6552 99.3103H55.1724V104.828H49.6552V99.3103Z" fill="white"/>
    <path d="M60.6897 99.3103H66.2069V104.828H60.6897V99.3103Z" fill="white"/>
    <path d="M82.7586 99.3103H88.2759V104.828H82.7586V99.3103Z" fill="white"/>
    <path d="M104.828 99.3103H110.345V104.828H104.828L104.828 99.3103Z"
          fill="white"/>
    <path d="M137.931 99.3103H143.448V104.828H137.931V99.3103Z" fill="white"/>
    <path d="M154.483 99.3103H160V104.828H154.483V99.3103Z" fill="white"/>
    <path d="M0 104.828H5.51724V110.345H0V104.828Z" fill="white"/>
    <path d="M11.0345 104.828H16.5517V110.345H11.0345V104.828Z" fill="white"/>
    <path d="M16.5517 104.828H22.069V110.345H16.5517V104.828Z" fill="white"/>
    <path d="M27.5862 104.828H33.1034V110.345H27.5862L27.5862 104.828Z"
          fill="white"/>
    <path d="M49.6552 104.828H55.1724V110.345H49.6552V104.828Z" fill="white"/>
    <path d="M55.1724 104.828H60.6897V110.345H55.1724V104.828Z" fill="white"/>
    <path d="M66.2069 104.828L71.7241 104.828V110.345H66.2069V104.828Z"
          fill="white"/>
    <path d="M71.7241 104.828H77.2414V110.345H71.7241V104.828Z" fill="white"/>
    <path d="M99.3103 104.828L104.828 104.828L104.828 110.345H99.3103V104.828Z"
          fill="white"/>
    <path d="M110.345 104.828L115.862 104.828V110.345H110.345V104.828Z"
          fill="white"/>
    <path d="M115.862 104.828H121.379V110.345H115.862V104.828Z" fill="white"/>
    <path d="M121.379 104.828H126.897V110.345H121.379V104.828Z" fill="white"/>
    <path d="M126.897 104.828H132.414V110.345H126.897V104.828Z" fill="white"/>
    <path d="M132.414 104.828L137.931 104.828V110.345H132.414V104.828Z"
          fill="white"/>
    <path d="M0 110.345H5.51724V115.862H0V110.345Z" fill="white"/>
    <path d="M22.069 110.345H27.5862L27.5862 115.862H22.069V110.345Z"
          fill="white"/>
    <path d="M33.1034 110.345H38.6207V115.862H33.1034V110.345Z" fill="white"/>
    <path d="M38.6207 110.345H44.1379V115.862H38.6207V110.345Z" fill="white"/>
    <path d="M49.6552 110.345H55.1724V115.862H49.6552V110.345Z" fill="white"/>
    <path d="M60.6897 110.345H66.2069V115.862H60.6897V110.345Z" fill="white"/>
    <path d="M77.2414 110.345H82.7586V115.862H77.2414V110.345Z" fill="white"/>
    <path d="M82.7586 110.345H88.2759V115.862H82.7586V110.345Z" fill="white"/>
    <path d="M93.7931 110.345H99.3103V115.862H93.7931V110.345Z" fill="white"/>
    <path d="M110.345 110.345H115.862V115.862H110.345V110.345Z" fill="white"/>
    <path d="M115.862 110.345H121.379V115.862H115.862V110.345Z" fill="white"/>
    <path d="M121.379 110.345H126.897V115.862H121.379V110.345Z" fill="white"/>
    <path d="M126.897 110.345H132.414V115.862H126.897V110.345Z" fill="white"/>
    <path d="M132.414 110.345H137.931V115.862H132.414V110.345Z" fill="white"/>
    <path d="M143.448 110.345H148.966V115.862H143.448V110.345Z" fill="white"/>
    <path d="M148.966 110.345H154.483V115.862H148.966V110.345Z" fill="white"/>
    <path d="M154.483 110.345H160V115.862H154.483V110.345Z" fill="white"/>
    <path d="M44.1379 115.862H49.6552V121.379H44.1379V115.862Z" fill="white"/>
    <path d="M49.6552 115.862H55.1724V121.379H49.6552V115.862Z" fill="white"/>
    <path d="M55.1724 115.862H60.6897V121.379H55.1724V115.862Z" fill="white"/>
    <path d="M77.2414 115.862H82.7586V121.379H77.2414V115.862Z" fill="white"/>
    <path d="M93.7931 115.862H99.3103V121.379H93.7931V115.862Z" fill="white"/>
    <path d="M99.3103 115.862H104.828V121.379H99.3103V115.862Z" fill="white"/>
    <path d="M110.345 115.862H115.862V121.379H110.345V115.862Z" fill="white"/>
    <path d="M132.414 115.862H137.931V121.379H132.414V115.862Z" fill="white"/>
    <path d="M137.931 115.862H143.448V121.379H137.931V115.862Z" fill="white"/>
    <path d="M66.2069 121.379H71.7241V126.897H66.2069V121.379Z" fill="white"/>
    <path d="M99.3103 121.379H104.828V126.897H99.3103V121.379Z" fill="white"/>
    <path d="M104.828 121.379H110.345V126.897H104.828V121.379Z" fill="white"/>
    <path d="M110.345 121.379H115.862V126.897H110.345V121.379Z" fill="white"/>
    <path d="M121.379 121.379H126.897V126.897H121.379V121.379Z" fill="white"/>
    <path d="M132.414 121.379H137.931V126.897H132.414V121.379Z" fill="white"/>
    <path d="M137.931 121.379H143.448V126.897H137.931V121.379Z" fill="white"/>
    <path d="M143.448 121.379H148.966V126.897H143.448V121.379Z" fill="white"/>
    <path d="M55.1724 126.897H60.6897V132.414H55.1724V126.897Z" fill="white"/>
    <path d="M60.6897 126.897H66.2069V132.414H60.6897V126.897Z" fill="white"/>
    <path d="M77.2414 126.897H82.7586V132.414H77.2414V126.897Z" fill="white"/>
    <path d="M82.7586 126.897H88.2759V132.414H82.7586V126.897Z" fill="white"/>
    <path d="M88.2759 126.897H93.7931V132.414H88.2759V126.897Z" fill="white"/>
    <path d="M104.828 126.897H110.345V132.414H104.828L104.828 126.897Z"
          fill="white"/>
    <path d="M110.345 126.897H115.862V132.414H110.345V126.897Z" fill="white"/>
    <path d="M132.414 126.897H137.931V132.414H132.414V126.897Z" fill="white"/>
    <path d="M154.483 126.897H160V132.414H154.483V126.897Z" fill="white"/>
    <path d="M66.2069 132.414H71.7241V137.931H66.2069V132.414Z" fill="white"/>
    <path d="M71.7241 132.414H77.2414V137.931H71.7241V132.414Z" fill="white"/>
    <path d="M77.2414 132.414H82.7586V137.931H77.2414V132.414Z" fill="white"/>
    <path d="M88.2759 132.414H93.7931V137.931H88.2759V132.414Z" fill="white"/>
    <path d="M104.828 132.414H110.345V137.931H104.828V132.414Z" fill="white"/>
    <path d="M110.345 132.414H115.862V137.931H110.345V132.414Z" fill="white"/>
    <path d="M115.862 132.414H121.379V137.931H115.862V132.414Z" fill="white"/>
    <path d="M121.379 132.414H126.897V137.931H121.379V132.414Z" fill="white"/>
    <path d="M126.897 132.414H132.414V137.931H126.897V132.414Z" fill="white"/>
    <path d="M132.414 132.414H137.931V137.931H132.414V132.414Z" fill="white"/>
    <path d="M137.931 132.414H143.448V137.931H137.931V132.414Z" fill="white"/>
    <path d="M49.6552 137.931H55.1724V143.448H49.6552V137.931Z" fill="white"/>
    <path d="M55.1724 137.931H60.6897V143.448H55.1724V137.931Z" fill="white"/>
    <path d="M60.6897 137.931H66.2069V143.448H60.6897V137.931Z" fill="white"/>
    <path d="M71.7241 137.931H77.2414V143.448H71.7241V137.931Z" fill="white"/>
    <path d="M77.2414 137.931H82.7586V143.448H77.2414V137.931Z" fill="white"/>
    <path d="M93.7931 137.931H99.3103V143.448H93.7931V137.931Z" fill="white"/>
    <path d="M99.3103 137.931H104.828L104.828 143.448H99.3103V137.931Z"
          fill="white"/>
    <path d="M115.862 137.931H121.379V143.448H115.862V137.931Z" fill="white"/>
    <path d="M126.897 137.931H132.414V143.448H126.897V137.931Z" fill="white"/>
    <path d="M137.931 137.931H143.448V143.448H137.931V137.931Z" fill="white"/>
    <path d="M143.448 137.931H148.966V143.448H143.448V137.931Z" fill="white"/>
    <path d="M148.966 137.931H154.483V143.448H148.966V137.931Z" fill="white"/>
    <path d="M49.6552 143.448H55.1724V148.966H49.6552V143.448Z" fill="white"/>
    <path d="M55.1724 143.448H60.6897V148.966H55.1724V143.448Z" fill="white"/>
    <path d="M82.7586 143.448H88.2759V148.966H82.7586V143.448Z" fill="white"/>
    <path d="M88.2759 143.448H93.7931V148.966H88.2759V143.448Z" fill="white"/>
    <path d="M93.7931 143.448H99.3103V148.966H93.7931V143.448Z" fill="white"/>
    <path d="M104.828 143.448H110.345V148.966H104.828L104.828 143.448Z"
          fill="white"/>
    <path d="M115.862 143.448H121.379V148.966H115.862V143.448Z" fill="white"/>
    <path d="M121.379 143.448H126.897V148.966H121.379V143.448Z" fill="white"/>
    <path d="M126.897 143.448H132.414V148.966H126.897V143.448Z" fill="white"/>
    <path d="M132.414 143.448H137.931V148.966H132.414V143.448Z" fill="white"/>
    <path d="M137.931 143.448H143.448V148.966H137.931V143.448Z" fill="white"/>
    <path d="M143.448 143.448H148.966V148.966H143.448V143.448Z" fill="white"/>
    <path d="M148.966 143.448H154.483V148.966H148.966V143.448Z" fill="white"/>
    <path d="M66.2069 148.966H71.7241V154.483H66.2069V148.966Z" fill="white"/>
    <path d="M82.7586 148.966H88.2759V154.483H82.7586V148.966Z" fill="white"/>
    <path d="M104.828 148.966H110.345V154.483H104.828V148.966Z" fill="white"/>
    <path d="M115.862 148.966H121.379V154.483H115.862V148.966Z" fill="white"/>
    <path d="M126.897 148.966H132.414V154.483H126.897V148.966Z" fill="white"/>
    <path d="M137.931 148.966H143.448V154.483H137.931V148.966Z" fill="white"/>
    <path d="M143.448 148.966H148.966V154.483H143.448V148.966Z" fill="white"/>
    <path d="M154.483 148.966H160V154.483H154.483V148.966Z" fill="white"/>
    <path d="M44.1379 154.483H49.6552V160H44.1379V154.483Z" fill="white"/>
    <path d="M49.6552 154.483H55.1724V160H49.6552V154.483Z" fill="white"/>
    <path d="M60.6897 154.483H66.2069V160H60.6897V154.483Z" fill="white"/>
    <path d="M71.7241 154.483H77.2414V160H71.7241V154.483Z" fill="white"/>
    <path d="M77.2414 154.483H82.7586V160H77.2414V154.483Z" fill="white"/>
    <path d="M93.7931 154.483H99.3103V160H93.7931V154.483Z" fill="white"/>
    <path d="M99.3103 154.483H104.828L104.828 160H99.3103V154.483Z"
          fill="white"/>
    <path d="M104.828 154.483H110.345V160H104.828L104.828 154.483Z"
          fill="white"/>
    <path d="M115.862 154.483H121.379V160H115.862V154.483Z" fill="white"/>
    <path d="M121.379 154.483H126.897V160H121.379V154.483Z" fill="white"/>
    <path d="M126.897 154.483H132.414V160H126.897V154.483Z" fill="white"/>
    <path d="M132.414 154.483H137.931V160H132.414V154.483Z" fill="white"/>
    <path d="M137.931 154.483H143.448V160H137.931V154.483Z" fill="white"/>
    <path d="M143.448 154.483H148.966V160H143.448V154.483Z" fill="white"/>
    <path fill-rule="evenodd" clip-rule="evenodd"
          d="M38.6207 0V38.6207H0V0H38.6207ZM5.7931 32.8276H32.8276V5.7931H5.7931V32.8276Z"
          fill="white"/>
    <path fill-rule="evenodd" clip-rule="evenodd"
          d="M160 0V38.6207H121.379V0H160ZM127.172 32.8276H154.207V5.7931H127.172V32.8276Z"
          fill="white"/>
    <path fill-rule="evenodd" clip-rule="evenodd"
          d="M38.6207 121.379V160H0V121.379H38.6207ZM5.7931 154.207H32.8276V127.172H5.7931V154.207Z"
          fill="white"/>
    <path d="M11.0345 11.0345H27.5862V27.5862H11.0345V11.0345Z" fill="white"/>
    <path d="M132.414 11.0345H148.966V27.5862H132.414V11.0345Z" fill="white"/>
    <path d="M11.0345 132.414H27.5862V148.966H11.0345V132.414Z" fill="white"/>
</svg>
